<svg width="500" height="600" viewBox="0 0 500 600" fill="none" xmlns="http://www.w3.org/2000/svg">
  <rect width="500" height="600" rx="8" fill="#080F0F" />
  <rect width="500" height="600" rx="8" fill="#080F0F" />
  <line y1="580.5" x2="500" y2="580.5" stroke="#A4BAB7" stroke-opacity="0.1" />
  <path
    d="M198.828 590.085H199.561C199.561 590.596 199.414 590.98 199.121 591.237C198.831 591.491 198.436 591.618 197.935 591.618C197.586 591.618 197.285 591.538 197.031 591.379C196.781 591.219 196.585 590.998 196.445 590.715C196.309 590.432 196.24 590.103 196.24 589.729V589.157C196.24 588.783 196.309 588.454 196.445 588.171C196.585 587.888 196.781 587.666 197.031 587.507C197.285 587.347 197.586 587.268 197.935 587.268C198.436 587.268 198.833 587.396 199.126 587.653C199.419 587.907 199.565 588.29 199.565 588.801H198.833C198.833 588.482 198.757 588.254 198.604 588.117C198.454 587.977 198.231 587.907 197.935 587.907C197.723 587.907 197.544 587.961 197.397 588.068C197.254 588.173 197.145 588.319 197.07 588.508C196.999 588.697 196.963 588.911 196.963 589.152V589.729C196.963 589.973 196.999 590.189 197.07 590.378C197.145 590.567 197.254 590.715 197.397 590.822C197.544 590.926 197.723 590.979 197.935 590.979C198.231 590.979 198.454 590.91 198.604 590.773C198.753 590.637 198.828 590.407 198.828 590.085ZM195.107 589.44C195.107 589.873 195.182 590.277 195.332 590.651C195.482 591.022 195.688 591.348 195.952 591.628C196.219 591.905 196.527 592.121 196.875 592.277C197.227 592.43 197.603 592.507 198.003 592.507C198.4 592.507 198.773 592.43 199.121 592.277C199.469 592.121 199.775 591.905 200.039 591.628C200.306 591.348 200.514 591.022 200.664 590.651C200.814 590.277 200.889 589.873 200.889 589.44C200.889 589.007 200.814 588.605 200.664 588.234C200.514 587.863 200.306 587.539 200.039 587.263C199.775 586.986 199.469 586.771 199.121 586.618C198.773 586.462 198.4 586.384 198.003 586.384C197.603 586.384 197.227 586.462 196.875 586.618C196.527 586.771 196.219 586.986 195.952 587.263C195.688 587.539 195.482 587.863 195.332 588.234C195.182 588.605 195.107 589.007 195.107 589.44ZM194.536 589.44C194.536 588.923 194.626 588.443 194.805 588C194.984 587.557 195.233 587.172 195.552 586.843C195.871 586.511 196.239 586.254 196.655 586.071C197.075 585.886 197.524 585.793 198.003 585.793C198.481 585.793 198.929 585.886 199.346 586.071C199.766 586.254 200.133 586.511 200.449 586.843C200.768 587.172 201.017 587.557 201.196 588C201.375 588.443 201.465 588.923 201.465 589.44C201.465 589.958 201.375 590.438 201.196 590.881C201.017 591.324 200.768 591.713 200.449 592.048C200.133 592.38 199.766 592.639 199.346 592.824C198.929 593.01 198.481 593.103 198.003 593.103C197.524 593.103 197.075 593.01 196.655 592.824C196.239 592.639 195.871 592.38 195.552 592.048C195.233 591.713 194.984 591.324 194.805 590.881C194.626 590.438 194.536 589.958 194.536 589.44ZM209.751 592.062V593H204.985V592.194L207.3 589.67C207.554 589.383 207.754 589.136 207.9 588.928C208.047 588.719 208.149 588.532 208.208 588.366C208.27 588.197 208.301 588.033 208.301 587.873C208.301 587.648 208.258 587.451 208.174 587.282C208.092 587.11 207.972 586.975 207.812 586.877C207.653 586.776 207.459 586.726 207.231 586.726C206.968 586.726 206.746 586.783 206.567 586.896C206.388 587.01 206.253 587.168 206.162 587.37C206.071 587.569 206.025 587.797 206.025 588.054H204.849C204.849 587.64 204.943 587.263 205.132 586.921C205.321 586.576 205.594 586.302 205.952 586.101C206.31 585.896 206.742 585.793 207.246 585.793C207.721 585.793 208.125 585.873 208.457 586.032C208.789 586.192 209.041 586.418 209.214 586.711C209.39 587.004 209.478 587.351 209.478 587.751C209.478 587.972 209.442 588.192 209.37 588.41C209.299 588.628 209.196 588.846 209.062 589.064C208.932 589.279 208.778 589.496 208.599 589.714C208.42 589.929 208.223 590.147 208.008 590.368L206.47 592.062H209.751ZM215.303 588.85V590.012C215.303 590.568 215.247 591.044 215.137 591.438C215.029 591.828 214.873 592.146 214.668 592.39C214.463 592.634 214.217 592.813 213.931 592.927C213.647 593.041 213.33 593.098 212.979 593.098C212.699 593.098 212.438 593.062 212.197 592.99C211.96 592.919 211.745 592.806 211.553 592.653C211.361 592.5 211.196 592.303 211.06 592.062C210.926 591.818 210.822 591.527 210.747 591.188C210.675 590.85 210.64 590.458 210.64 590.012V588.85C210.64 588.29 210.695 587.818 210.806 587.434C210.916 587.046 211.074 586.732 211.279 586.491C211.484 586.247 211.729 586.07 212.012 585.959C212.298 585.848 212.617 585.793 212.969 585.793C213.252 585.793 213.512 585.829 213.75 585.9C213.991 585.969 214.206 586.078 214.395 586.228C214.587 586.377 214.749 586.573 214.883 586.813C215.02 587.051 215.124 587.339 215.195 587.678C215.267 588.013 215.303 588.404 215.303 588.85ZM214.126 590.178V588.674C214.126 588.391 214.11 588.142 214.077 587.927C214.045 587.709 213.996 587.525 213.931 587.375C213.869 587.222 213.791 587.098 213.696 587.004C213.602 586.906 213.494 586.836 213.374 586.794C213.254 586.748 213.118 586.726 212.969 586.726C212.786 586.726 212.624 586.761 212.48 586.833C212.337 586.901 212.217 587.012 212.119 587.165C212.021 587.318 211.947 587.52 211.895 587.771C211.846 588.018 211.821 588.319 211.821 588.674V590.178C211.821 590.464 211.838 590.716 211.87 590.935C211.903 591.153 211.951 591.34 212.017 591.496C212.082 591.649 212.16 591.776 212.251 591.877C212.345 591.975 212.453 592.046 212.573 592.092C212.697 592.137 212.832 592.16 212.979 592.16C213.164 592.16 213.328 592.124 213.472 592.053C213.615 591.981 213.735 591.867 213.833 591.711C213.931 591.551 214.004 591.345 214.053 591.091C214.102 590.837 214.126 590.533 214.126 590.178ZM221.118 592.062V593H216.353V592.194L218.667 589.67C218.921 589.383 219.121 589.136 219.268 588.928C219.414 588.719 219.517 588.532 219.575 588.366C219.637 588.197 219.668 588.033 219.668 587.873C219.668 587.648 219.626 587.451 219.541 587.282C219.46 587.11 219.339 586.975 219.18 586.877C219.02 586.776 218.826 586.726 218.599 586.726C218.335 586.726 218.114 586.783 217.935 586.896C217.756 587.01 217.62 587.168 217.529 587.37C217.438 587.569 217.393 587.797 217.393 588.054H216.216C216.216 587.64 216.31 587.263 216.499 586.921C216.688 586.576 216.961 586.302 217.319 586.101C217.677 585.896 218.109 585.793 218.613 585.793C219.089 585.793 219.492 585.873 219.824 586.032C220.156 586.192 220.409 586.418 220.581 586.711C220.757 587.004 220.845 587.351 220.845 587.751C220.845 587.972 220.809 588.192 220.737 588.41C220.666 588.628 220.563 588.846 220.43 589.064C220.299 589.279 220.145 589.496 219.966 589.714C219.787 589.929 219.59 590.147 219.375 590.368L217.837 592.062H221.118ZM226.802 592.062V593H222.036V592.194L224.351 589.67C224.604 589.383 224.805 589.136 224.951 588.928C225.098 588.719 225.2 588.532 225.259 588.366C225.321 588.197 225.352 588.033 225.352 587.873C225.352 587.648 225.309 587.451 225.225 587.282C225.143 587.11 225.023 586.975 224.863 586.877C224.704 586.776 224.51 586.726 224.282 586.726C224.019 586.726 223.797 586.783 223.618 586.896C223.439 587.01 223.304 587.168 223.213 587.37C223.122 587.569 223.076 587.797 223.076 588.054H221.899C221.899 587.64 221.994 587.263 222.183 586.921C222.371 586.576 222.645 586.302 223.003 586.101C223.361 585.896 223.792 585.793 224.297 585.793C224.772 585.793 225.176 585.873 225.508 586.032C225.84 586.192 226.092 586.418 226.265 586.711C226.44 587.004 226.528 587.351 226.528 587.751C226.528 587.972 226.493 588.192 226.421 588.41C226.349 588.628 226.247 588.846 226.113 589.064C225.983 589.279 225.828 589.496 225.649 589.714C225.47 589.929 225.273 590.147 225.059 590.368L223.521 592.062H226.802ZM232.646 589.494V590.432H230.063V589.494H232.646ZM238.95 589.787H237.139L237.129 588.894H238.711C238.978 588.894 239.204 588.854 239.39 588.776C239.578 588.695 239.722 588.579 239.819 588.43C239.917 588.277 239.966 588.093 239.966 587.878C239.966 587.64 239.92 587.447 239.829 587.297C239.738 587.147 239.598 587.038 239.409 586.97C239.224 586.901 238.986 586.867 238.696 586.867H237.51V593H236.284V585.891H238.696C239.087 585.891 239.435 585.928 239.741 586.003C240.05 586.078 240.312 586.195 240.527 586.354C240.745 586.511 240.91 586.709 241.021 586.95C241.134 587.191 241.191 587.478 241.191 587.81C241.191 588.103 241.121 588.371 240.981 588.615C240.841 588.856 240.635 589.053 240.361 589.206C240.088 589.359 239.748 589.45 239.341 589.479L238.95 589.787ZM238.896 593H236.753L237.305 592.028H238.896C239.173 592.028 239.404 591.983 239.59 591.892C239.775 591.797 239.914 591.669 240.005 591.506C240.099 591.34 240.146 591.146 240.146 590.925C240.146 590.694 240.106 590.493 240.024 590.324C239.943 590.152 239.814 590.02 239.639 589.929C239.463 589.834 239.233 589.787 238.95 589.787H237.573L237.583 588.894H239.375L239.653 589.23C240.044 589.243 240.365 589.33 240.615 589.489C240.869 589.649 241.058 589.855 241.182 590.109C241.305 590.363 241.367 590.637 241.367 590.93C241.367 591.382 241.268 591.761 241.069 592.067C240.874 592.373 240.592 592.606 240.225 592.766C239.857 592.922 239.414 593 238.896 593ZM244.019 592.424L245.454 587.717H246.714L244.595 593.806C244.546 593.936 244.482 594.077 244.404 594.23C244.326 594.383 244.224 594.528 244.097 594.665C243.973 594.805 243.818 594.917 243.633 595.002C243.447 595.09 243.223 595.134 242.959 595.134C242.855 595.134 242.754 595.124 242.656 595.104C242.562 595.088 242.472 595.07 242.388 595.051L242.383 594.152C242.415 594.156 242.454 594.159 242.5 594.162C242.549 594.165 242.588 594.167 242.617 594.167C242.812 594.167 242.975 594.143 243.105 594.094C243.236 594.048 243.341 593.973 243.423 593.869C243.507 593.765 243.579 593.625 243.638 593.449L244.019 592.424ZM243.208 587.717L244.463 591.672L244.673 592.912L243.857 593.122L241.938 587.717H243.208ZM252.686 585.891V593H251.47V585.891H252.686ZM254.917 585.891V586.867H249.258V585.891H254.917ZM256.997 587.717V593H255.815V587.717H256.997ZM255.737 586.33C255.737 586.151 255.796 586.003 255.913 585.886C256.034 585.765 256.2 585.705 256.411 585.705C256.619 585.705 256.784 585.765 256.904 585.886C257.025 586.003 257.085 586.151 257.085 586.33C257.085 586.506 257.025 586.652 256.904 586.77C256.784 586.887 256.619 586.945 256.411 586.945C256.2 586.945 256.034 586.887 255.913 586.77C255.796 586.652 255.737 586.506 255.737 586.33ZM261.265 591.94V589.421C261.265 589.232 261.23 589.069 261.162 588.933C261.094 588.796 260.99 588.69 260.85 588.615C260.713 588.54 260.54 588.503 260.332 588.503C260.14 588.503 259.974 588.535 259.834 588.601C259.694 588.666 259.585 588.754 259.507 588.864C259.429 588.975 259.39 589.1 259.39 589.24H258.218C258.218 589.032 258.268 588.83 258.369 588.635C258.47 588.439 258.617 588.265 258.809 588.112C259.001 587.959 259.23 587.839 259.497 587.751C259.764 587.663 260.063 587.619 260.396 587.619C260.793 587.619 261.144 587.686 261.45 587.819C261.759 587.953 262.002 588.155 262.178 588.425C262.357 588.692 262.446 589.027 262.446 589.431V591.779C262.446 592.02 262.463 592.237 262.495 592.429C262.531 592.618 262.581 592.782 262.646 592.922V593H261.44C261.385 592.873 261.341 592.712 261.309 592.517C261.279 592.318 261.265 592.126 261.265 591.94ZM261.436 589.787L261.445 590.515H260.601C260.382 590.515 260.19 590.536 260.024 590.578C259.858 590.617 259.72 590.676 259.609 590.754C259.499 590.832 259.416 590.926 259.36 591.037C259.305 591.148 259.277 591.273 259.277 591.413C259.277 591.553 259.31 591.682 259.375 591.799C259.44 591.913 259.535 592.002 259.658 592.067C259.785 592.132 259.938 592.165 260.117 592.165C260.358 592.165 260.568 592.116 260.747 592.019C260.929 591.918 261.073 591.796 261.177 591.652C261.281 591.506 261.336 591.368 261.343 591.237L261.724 591.76C261.685 591.893 261.618 592.036 261.523 592.189C261.429 592.342 261.305 592.489 261.152 592.629C261.003 592.766 260.822 592.878 260.61 592.966C260.402 593.054 260.161 593.098 259.888 593.098C259.543 593.098 259.235 593.029 258.965 592.893C258.695 592.753 258.483 592.565 258.33 592.331C258.177 592.093 258.101 591.825 258.101 591.525C258.101 591.245 258.153 590.998 258.257 590.783C258.364 590.565 258.521 590.383 258.726 590.236C258.934 590.09 259.188 589.979 259.487 589.904C259.787 589.826 260.129 589.787 260.513 589.787H261.436ZM261.509 585.559L262.227 585.612C262.227 585.85 262.179 586.063 262.085 586.252C261.991 586.438 261.862 586.584 261.699 586.691C261.536 586.799 261.353 586.853 261.147 586.853C260.988 586.853 260.853 586.83 260.742 586.784C260.632 586.739 260.531 586.687 260.439 586.628C260.348 586.569 260.254 586.519 260.156 586.477C260.062 586.431 259.95 586.408 259.819 586.408C259.696 586.408 259.59 586.454 259.502 586.545C259.417 586.636 259.375 586.758 259.375 586.911L258.652 586.872C258.652 586.638 258.7 586.426 258.794 586.237C258.888 586.049 259.017 585.899 259.18 585.788C259.342 585.677 259.526 585.622 259.731 585.622C259.865 585.622 259.985 585.645 260.093 585.69C260.203 585.733 260.308 585.783 260.405 585.842C260.506 585.9 260.609 585.952 260.713 585.998C260.817 586.044 260.933 586.066 261.06 586.066C261.183 586.066 261.289 586.019 261.377 585.925C261.465 585.83 261.509 585.708 261.509 585.559ZM263.452 590.417V590.305C263.452 589.924 263.507 589.571 263.618 589.245C263.729 588.916 263.888 588.632 264.097 588.391C264.308 588.146 264.565 587.958 264.868 587.824C265.174 587.688 265.519 587.619 265.903 587.619C266.291 587.619 266.636 587.688 266.938 587.824C267.244 587.958 267.503 588.146 267.715 588.391C267.926 588.632 268.088 588.916 268.198 589.245C268.309 589.571 268.364 589.924 268.364 590.305V590.417C268.364 590.798 268.309 591.151 268.198 591.477C268.088 591.802 267.926 592.087 267.715 592.331C267.503 592.572 267.246 592.761 266.943 592.897C266.641 593.031 266.297 593.098 265.913 593.098C265.526 593.098 265.179 593.031 264.873 592.897C264.57 592.761 264.313 592.572 264.102 592.331C263.89 592.087 263.729 591.802 263.618 591.477C263.507 591.151 263.452 590.798 263.452 590.417ZM264.629 590.305V590.417C264.629 590.655 264.653 590.879 264.702 591.091C264.751 591.302 264.827 591.488 264.932 591.647C265.036 591.807 265.169 591.932 265.332 592.023C265.495 592.115 265.688 592.16 265.913 592.16C266.131 592.16 266.32 592.115 266.479 592.023C266.642 591.932 266.776 591.807 266.88 591.647C266.984 591.488 267.061 591.302 267.109 591.091C267.161 590.879 267.188 590.655 267.188 590.417V590.305C267.188 590.07 267.161 589.849 267.109 589.641C267.061 589.429 266.982 589.242 266.875 589.079C266.771 588.916 266.637 588.789 266.475 588.698C266.315 588.604 266.125 588.557 265.903 588.557C265.682 588.557 265.49 588.604 265.327 588.698C265.168 588.789 265.036 588.916 264.932 589.079C264.827 589.242 264.751 589.429 264.702 589.641C264.653 589.849 264.629 590.07 264.629 590.305ZM277.598 585.891V593H276.372L273.184 587.907V593H271.958V585.891H273.184L276.382 590.993V585.891H277.598ZM281.919 591.94V589.421C281.919 589.232 281.885 589.069 281.816 588.933C281.748 588.796 281.644 588.69 281.504 588.615C281.367 588.54 281.195 588.503 280.986 588.503C280.794 588.503 280.628 588.535 280.488 588.601C280.348 588.666 280.239 588.754 280.161 588.864C280.083 588.975 280.044 589.1 280.044 589.24H278.872C278.872 589.032 278.923 588.83 279.023 588.635C279.124 588.439 279.271 588.265 279.463 588.112C279.655 587.959 279.884 587.839 280.151 587.751C280.418 587.663 280.718 587.619 281.05 587.619C281.447 587.619 281.799 587.686 282.104 587.819C282.414 587.953 282.656 588.155 282.832 588.425C283.011 588.692 283.101 589.027 283.101 589.431V591.779C283.101 592.02 283.117 592.237 283.149 592.429C283.185 592.618 283.236 592.782 283.301 592.922V593H282.095C282.039 592.873 281.995 592.712 281.963 592.517C281.934 592.318 281.919 592.126 281.919 591.94ZM282.09 589.787L282.1 590.515H281.255C281.037 590.515 280.845 590.536 280.679 590.578C280.513 590.617 280.374 590.676 280.264 590.754C280.153 590.832 280.07 590.926 280.015 591.037C279.959 591.148 279.932 591.273 279.932 591.413C279.932 591.553 279.964 591.682 280.029 591.799C280.094 591.913 280.189 592.002 280.312 592.067C280.439 592.132 280.592 592.165 280.771 592.165C281.012 592.165 281.222 592.116 281.401 592.019C281.584 591.918 281.727 591.796 281.831 591.652C281.935 591.506 281.991 591.368 281.997 591.237L282.378 591.76C282.339 591.893 282.272 592.036 282.178 592.189C282.083 592.342 281.96 592.489 281.807 592.629C281.657 592.766 281.476 592.878 281.265 592.966C281.056 593.054 280.815 593.098 280.542 593.098C280.197 593.098 279.889 593.029 279.619 592.893C279.349 592.753 279.137 592.565 278.984 592.331C278.831 592.093 278.755 591.825 278.755 591.525C278.755 591.245 278.807 590.998 278.911 590.783C279.019 590.565 279.175 590.383 279.38 590.236C279.588 590.09 279.842 589.979 280.142 589.904C280.441 589.826 280.783 589.787 281.167 589.787H282.09ZM288.418 592.062V593H284.482V592.062H288.418ZM288.311 588.449L284.883 593H284.121V592.243L287.529 587.717H288.311V588.449ZM287.856 587.717V588.654H284.18V587.717H287.856ZM292.339 591.94V589.421C292.339 589.232 292.305 589.069 292.236 588.933C292.168 588.796 292.064 588.69 291.924 588.615C291.787 588.54 291.615 588.503 291.406 588.503C291.214 588.503 291.048 588.535 290.908 588.601C290.768 588.666 290.659 588.754 290.581 588.864C290.503 588.975 290.464 589.1 290.464 589.24H289.292C289.292 589.032 289.342 588.83 289.443 588.635C289.544 588.439 289.691 588.265 289.883 588.112C290.075 587.959 290.304 587.839 290.571 587.751C290.838 587.663 291.138 587.619 291.47 587.619C291.867 587.619 292.218 587.686 292.524 587.819C292.834 587.953 293.076 588.155 293.252 588.425C293.431 588.692 293.521 589.027 293.521 589.431V591.779C293.521 592.02 293.537 592.237 293.569 592.429C293.605 592.618 293.656 592.782 293.721 592.922V593H292.515C292.459 592.873 292.415 592.712 292.383 592.517C292.354 592.318 292.339 592.126 292.339 591.94ZM292.51 589.787L292.52 590.515H291.675C291.457 590.515 291.265 590.536 291.099 590.578C290.933 590.617 290.794 590.676 290.684 590.754C290.573 590.832 290.49 590.926 290.435 591.037C290.379 591.148 290.352 591.273 290.352 591.413C290.352 591.553 290.384 591.682 290.449 591.799C290.514 591.913 290.609 592.002 290.732 592.067C290.859 592.132 291.012 592.165 291.191 592.165C291.432 592.165 291.642 592.116 291.821 592.019C292.004 591.918 292.147 591.796 292.251 591.652C292.355 591.506 292.41 591.368 292.417 591.237L292.798 591.76C292.759 591.893 292.692 592.036 292.598 592.189C292.503 592.342 292.38 592.489 292.227 592.629C292.077 592.766 291.896 592.878 291.685 592.966C291.476 593.054 291.235 593.098 290.962 593.098C290.617 593.098 290.309 593.029 290.039 592.893C289.769 592.753 289.557 592.565 289.404 592.331C289.251 592.093 289.175 591.825 289.175 591.525C289.175 591.245 289.227 590.998 289.331 590.783C289.438 590.565 289.595 590.383 289.8 590.236C290.008 590.09 290.262 589.979 290.562 589.904C290.861 589.826 291.203 589.787 291.587 589.787H292.51ZM290.923 586.97L291.875 585.5H293.203L291.875 586.97H290.923ZM295.933 588.723V593H294.756V587.717H295.879L295.933 588.723ZM297.549 587.683L297.539 588.776C297.467 588.763 297.389 588.754 297.305 588.747C297.223 588.741 297.142 588.737 297.061 588.737C296.859 588.737 296.681 588.767 296.528 588.825C296.375 588.881 296.247 588.962 296.143 589.069C296.042 589.174 295.964 589.3 295.908 589.45C295.853 589.6 295.82 589.768 295.811 589.953L295.542 589.973C295.542 589.641 295.575 589.333 295.64 589.05C295.705 588.767 295.802 588.518 295.933 588.303C296.066 588.088 296.232 587.92 296.431 587.8C296.632 587.679 296.865 587.619 297.129 587.619C297.201 587.619 297.277 587.626 297.358 587.639C297.443 587.652 297.507 587.666 297.549 587.683ZM299.546 587.717V593H298.364V587.717H299.546ZM298.286 586.33C298.286 586.151 298.345 586.003 298.462 585.886C298.582 585.765 298.748 585.705 298.96 585.705C299.168 585.705 299.333 585.765 299.453 585.886C299.574 586.003 299.634 586.151 299.634 586.33C299.634 586.506 299.574 586.652 299.453 586.77C299.333 586.887 299.168 586.945 298.96 586.945C298.748 586.945 298.582 586.887 298.462 586.77C298.345 586.652 298.286 586.506 298.286 586.33ZM300.61 590.417V590.305C300.61 589.924 300.666 589.571 300.776 589.245C300.887 588.916 301.047 588.632 301.255 588.391C301.466 588.146 301.724 587.958 302.026 587.824C302.332 587.688 302.677 587.619 303.062 587.619C303.449 587.619 303.794 587.688 304.097 587.824C304.403 587.958 304.661 588.146 304.873 588.391C305.085 588.632 305.246 588.916 305.356 589.245C305.467 589.571 305.522 589.924 305.522 590.305V590.417C305.522 590.798 305.467 591.151 305.356 591.477C305.246 591.802 305.085 592.087 304.873 592.331C304.661 592.572 304.404 592.761 304.102 592.897C303.799 593.031 303.455 593.098 303.071 593.098C302.684 593.098 302.337 593.031 302.031 592.897C301.729 592.761 301.471 592.572 301.26 592.331C301.048 592.087 300.887 591.802 300.776 591.477C300.666 591.151 300.61 590.798 300.61 590.417ZM301.787 590.305V590.417C301.787 590.655 301.812 590.879 301.86 591.091C301.909 591.302 301.986 591.488 302.09 591.647C302.194 591.807 302.327 591.932 302.49 592.023C302.653 592.115 302.847 592.16 303.071 592.16C303.289 592.16 303.478 592.115 303.638 592.023C303.8 591.932 303.934 591.807 304.038 591.647C304.142 591.488 304.219 591.302 304.268 591.091C304.32 590.879 304.346 590.655 304.346 590.417V590.305C304.346 590.07 304.32 589.849 304.268 589.641C304.219 589.429 304.141 589.242 304.033 589.079C303.929 588.916 303.796 588.789 303.633 588.698C303.473 588.604 303.283 588.557 303.062 588.557C302.84 588.557 302.648 588.604 302.485 588.698C302.326 588.789 302.194 588.916 302.09 589.079C301.986 589.242 301.909 589.429 301.86 589.641C301.812 589.849 301.787 590.07 301.787 590.305Z"
    fill="#A4BAB7" />
  <rect x="20" y="240" width="460" height="320" rx="8" fill="black" />
  <rect x="20.5" y="240.5" width="459" height="319" rx="7.5" stroke="#A4BAB7" stroke-opacity="0.1" />
  <path
    d="M245.002 216.254C245.002 215.566 245.565 215.004 246.253 215.004H255.005V208.335H248.337C247.416 208.335 246.669 207.589 246.669 206.668V200H237.501C236.12 200 235 201.12 235 202.501V224.172C235 225.553 236.12 226.673 237.501 226.673H252.504C253.885 226.673 255.005 225.553 255.005 224.172V217.504H246.253C245.565 217.504 245.002 216.947 245.002 216.254ZM248.337 200V206.668H255.005L248.337 200ZM264.596 215.368L260.428 211.201C259.94 210.712 259.148 210.712 258.66 211.201C258.171 211.689 258.171 212.48 258.66 212.969L260.741 215.004H255.005V217.504H260.741L258.707 219.537C258.459 219.781 258.339 220.099 258.339 220.422C258.339 220.745 258.461 221.061 258.705 221.306C259.194 221.794 259.985 221.794 260.473 221.306L264.641 217.138C265.127 216.65 265.127 215.858 264.596 215.368Z"
    fill="#A4BAB7" />
  <path
    d="M478.125 170.75H470.625L468.125 168.25H461.875C460.84 168.25 460 169.09 460 170.125V173.25H480V172.625C480 171.59 479.16 170.75 478.125 170.75ZM460 183.875C460 184.91 460.84 185.75 461.875 185.75H478.125C479.16 185.75 480 184.91 480 183.875V174.5H460V183.875Z"
    fill="#A4BAB7" />
  <rect x="80" y="165" width="370" height="25" fill="black" />
  <rect x="80.5" y="165.5" width="369" height="24" stroke="#A4BAB7" stroke-opacity="0.1" />
  <path
    d="M90.8438 180.426C90.8438 180.242 90.9004 180.088 91.0137 179.963C91.1309 179.834 91.2988 179.77 91.5176 179.77C91.7363 179.77 91.9023 179.834 92.0156 179.963C92.1328 180.088 92.1914 180.242 92.1914 180.426C92.1914 180.605 92.1328 180.758 92.0156 180.883C91.9023 181.008 91.7363 181.07 91.5176 181.07C91.2988 181.07 91.1309 181.008 91.0137 180.883C90.9004 180.758 90.8438 180.605 90.8438 180.426ZM94.0078 180.426C94.0078 180.242 94.0645 180.088 94.1777 179.963C94.2949 179.834 94.4629 179.77 94.6816 179.77C94.9004 179.77 95.0664 179.834 95.1797 179.963C95.2969 180.088 95.3555 180.242 95.3555 180.426C95.3555 180.605 95.2969 180.758 95.1797 180.883C95.0664 181.008 94.9004 181.07 94.6816 181.07C94.4629 181.07 94.2949 181.008 94.1777 180.883C94.0645 180.758 94.0078 180.605 94.0078 180.426ZM97.1719 180.426C97.1719 180.242 97.2285 180.088 97.3418 179.963C97.459 179.834 97.627 179.77 97.8457 179.77C98.0645 179.77 98.2305 179.834 98.3438 179.963C98.4609 180.088 98.5195 180.242 98.5195 180.426C98.5195 180.605 98.4609 180.758 98.3438 180.883C98.2305 181.008 98.0645 181.07 97.8457 181.07C97.627 181.07 97.459 181.008 97.3418 180.883C97.2285 180.758 97.1719 180.605 97.1719 180.426Z"
    fill="white" />
  <path
    d="M25.5371 178.844C25.5371 178.645 25.5059 178.469 25.4434 178.316C25.3848 178.16 25.2793 178.02 25.127 177.895C24.9785 177.77 24.7715 177.65 24.5059 177.537C24.2441 177.424 23.9121 177.309 23.5098 177.191C23.0879 177.066 22.707 176.928 22.3672 176.775C22.0273 176.619 21.7363 176.441 21.4941 176.242C21.252 176.043 21.0664 175.814 20.9375 175.557C20.8086 175.299 20.7441 175.004 20.7441 174.672C20.7441 174.34 20.8125 174.033 20.9492 173.752C21.0859 173.471 21.2812 173.227 21.5352 173.02C21.793 172.809 22.0996 172.645 22.4551 172.527C22.8105 172.41 23.207 172.352 23.6445 172.352C24.2852 172.352 24.8281 172.475 25.2734 172.721C25.7227 172.963 26.0645 173.281 26.2988 173.676C26.5332 174.066 26.6504 174.484 26.6504 174.93H25.5254C25.5254 174.609 25.457 174.326 25.3203 174.08C25.1836 173.83 24.9766 173.635 24.6992 173.494C24.4219 173.35 24.0703 173.277 23.6445 173.277C23.2422 173.277 22.9102 173.338 22.6484 173.459C22.3867 173.58 22.1914 173.744 22.0625 173.951C21.9375 174.158 21.875 174.395 21.875 174.66C21.875 174.84 21.9121 175.004 21.9863 175.152C22.0645 175.297 22.1836 175.432 22.3438 175.557C22.5078 175.682 22.7148 175.797 22.9648 175.902C23.2188 176.008 23.5215 176.109 23.873 176.207C24.3574 176.344 24.7754 176.496 25.127 176.664C25.4785 176.832 25.7676 177.021 25.9941 177.232C26.2246 177.439 26.3945 177.676 26.5039 177.941C26.6172 178.203 26.6738 178.5 26.6738 178.832C26.6738 179.18 26.6035 179.494 26.4629 179.775C26.3223 180.057 26.1211 180.297 25.8594 180.496C25.5977 180.695 25.2832 180.85 24.916 180.959C24.5527 181.064 24.1465 181.117 23.6973 181.117C23.3027 181.117 22.9141 181.062 22.5312 180.953C22.1523 180.844 21.8066 180.68 21.4941 180.461C21.1855 180.242 20.9375 179.973 20.75 179.652C20.5664 179.328 20.4746 178.953 20.4746 178.527H21.5996C21.5996 178.82 21.6562 179.072 21.7695 179.283C21.8828 179.49 22.0371 179.662 22.2324 179.799C22.4316 179.936 22.6562 180.037 22.9062 180.104C23.1602 180.166 23.4238 180.197 23.6973 180.197C24.0918 180.197 24.4258 180.143 24.6992 180.033C24.9727 179.924 25.1797 179.768 25.3203 179.564C25.4648 179.361 25.5371 179.121 25.5371 178.844ZM31.6895 179.916V176.652C31.6895 176.402 31.6387 176.186 31.5371 176.002C31.4395 175.814 31.291 175.67 31.0918 175.568C30.8926 175.467 30.6465 175.416 30.3535 175.416C30.0801 175.416 29.8398 175.463 29.6328 175.557C29.4297 175.65 29.2695 175.773 29.1523 175.926C29.0391 176.078 28.9824 176.242 28.9824 176.418H27.8984C27.8984 176.191 27.957 175.967 28.0742 175.744C28.1914 175.521 28.3594 175.32 28.5781 175.141C28.8008 174.957 29.0664 174.812 29.375 174.707C29.6875 174.598 30.0352 174.543 30.418 174.543C30.8789 174.543 31.2852 174.621 31.6367 174.777C31.9922 174.934 32.2695 175.17 32.4688 175.486C32.6719 175.799 32.7734 176.191 32.7734 176.664V179.617C32.7734 179.828 32.791 180.053 32.8262 180.291C32.8652 180.529 32.9219 180.734 32.9961 180.906V181H31.8652C31.8105 180.875 31.7676 180.709 31.7363 180.502C31.7051 180.291 31.6895 180.096 31.6895 179.916ZM31.877 177.156L31.8887 177.918H30.793C30.4844 177.918 30.209 177.943 29.9668 177.994C29.7246 178.041 29.5215 178.113 29.3574 178.211C29.1934 178.309 29.0684 178.432 28.9824 178.58C28.8965 178.725 28.8535 178.895 28.8535 179.09C28.8535 179.289 28.8984 179.471 28.9883 179.635C29.0781 179.799 29.2129 179.93 29.3926 180.027C29.5762 180.121 29.8008 180.168 30.0664 180.168C30.3984 180.168 30.6914 180.098 30.9453 179.957C31.1992 179.816 31.4004 179.645 31.5488 179.441C31.7012 179.238 31.7832 179.041 31.7949 178.85L32.2578 179.371C32.2305 179.535 32.1562 179.717 32.0352 179.916C31.9141 180.115 31.752 180.307 31.5488 180.49C31.3496 180.67 31.1113 180.82 30.834 180.941C30.5605 181.059 30.252 181.117 29.9082 181.117C29.4785 181.117 29.1016 181.033 28.7773 180.865C28.457 180.697 28.207 180.473 28.0273 180.191C27.8516 179.906 27.7637 179.588 27.7637 179.236C27.7637 178.896 27.8301 178.598 27.9629 178.34C28.0957 178.078 28.2871 177.861 28.5371 177.689C28.7871 177.514 29.0879 177.381 29.4395 177.291C29.791 177.201 30.1836 177.156 30.6172 177.156H31.877ZM36.3125 180.021L38.0469 174.66H39.1543L36.875 181H36.1484L36.3125 180.021ZM34.8652 174.66L36.6523 180.051L36.7754 181H36.0488L33.752 174.66H34.8652ZM42.7461 181.117C42.3047 181.117 41.9043 181.043 41.5449 180.895C41.1895 180.742 40.8828 180.529 40.625 180.256C40.3711 179.982 40.1758 179.658 40.0391 179.283C39.9023 178.908 39.834 178.498 39.834 178.053V177.807C39.834 177.291 39.9102 176.832 40.0625 176.43C40.2148 176.023 40.4219 175.68 40.6836 175.398C40.9453 175.117 41.2422 174.904 41.5742 174.76C41.9062 174.615 42.25 174.543 42.6055 174.543C43.0586 174.543 43.4492 174.621 43.7773 174.777C44.1094 174.934 44.3809 175.152 44.5918 175.434C44.8027 175.711 44.959 176.039 45.0605 176.418C45.1621 176.793 45.2129 177.203 45.2129 177.648V178.135H40.4785V177.25H44.1289V177.168C44.1133 176.887 44.0547 176.613 43.9531 176.348C43.8555 176.082 43.6992 175.863 43.4844 175.691C43.2695 175.52 42.9766 175.434 42.6055 175.434C42.3594 175.434 42.1328 175.486 41.9258 175.592C41.7188 175.693 41.541 175.846 41.3926 176.049C41.2441 176.252 41.1289 176.5 41.0469 176.793C40.9648 177.086 40.9238 177.424 40.9238 177.807V178.053C40.9238 178.354 40.9648 178.637 41.0469 178.902C41.1328 179.164 41.2559 179.395 41.416 179.594C41.5801 179.793 41.7773 179.949 42.0078 180.062C42.2422 180.176 42.5078 180.232 42.8047 180.232C43.1875 180.232 43.5117 180.154 43.7773 179.998C44.043 179.842 44.2754 179.633 44.4746 179.371L45.1309 179.893C44.9941 180.1 44.8203 180.297 44.6094 180.484C44.3984 180.672 44.1387 180.824 43.8301 180.941C43.5254 181.059 43.1641 181.117 42.7461 181.117ZM46.4316 180.426C46.4316 180.242 46.4883 180.088 46.6016 179.963C46.7188 179.834 46.8867 179.77 47.1055 179.77C47.3242 179.77 47.4902 179.834 47.6035 179.963C47.7207 180.088 47.7793 180.242 47.7793 180.426C47.7793 180.605 47.7207 180.758 47.6035 180.883C47.4902 181.008 47.3242 181.07 47.1055 181.07C46.8867 181.07 46.7188 181.008 46.6016 180.883C46.4883 180.758 46.4316 180.605 46.4316 180.426ZM46.4375 175.252C46.4375 175.068 46.4941 174.914 46.6074 174.789C46.7246 174.66 46.8926 174.596 47.1113 174.596C47.3301 174.596 47.4961 174.66 47.6094 174.789C47.7266 174.914 47.7852 175.068 47.7852 175.252C47.7852 175.432 47.7266 175.584 47.6094 175.709C47.4961 175.834 47.3301 175.896 47.1113 175.896C46.8926 175.896 46.7246 175.834 46.6074 175.709C46.4941 175.584 46.4375 175.432 46.4375 175.252Z"
    fill="#A4BAB7" />
  <path
    d="M478.125 135.75H470.625L468.125 133.25H461.875C460.84 133.25 460 134.09 460 135.125V138.25H480V137.625C480 136.59 479.16 135.75 478.125 135.75ZM460 148.875C460 149.91 460.84 150.75 461.875 150.75H478.125C479.16 150.75 480 149.91 480 148.875V139.5H460V148.875Z"
    fill="#A4BAB7" />
  <rect x="80" y="130" width="370" height="25" fill="black" />
  <rect x="80.5" y="130.5" width="369" height="24" stroke="#A4BAB7" stroke-opacity="0.1" />
  <path
    d="M90.8438 145.426C90.8438 145.242 90.9004 145.088 91.0137 144.963C91.1309 144.834 91.2988 144.77 91.5176 144.77C91.7363 144.77 91.9023 144.834 92.0156 144.963C92.1328 145.088 92.1914 145.242 92.1914 145.426C92.1914 145.605 92.1328 145.758 92.0156 145.883C91.9023 146.008 91.7363 146.07 91.5176 146.07C91.2988 146.07 91.1309 146.008 91.0137 145.883C90.9004 145.758 90.8438 145.605 90.8438 145.426ZM94.0078 145.426C94.0078 145.242 94.0645 145.088 94.1777 144.963C94.2949 144.834 94.4629 144.77 94.6816 144.77C94.9004 144.77 95.0664 144.834 95.1797 144.963C95.2969 145.088 95.3555 145.242 95.3555 145.426C95.3555 145.605 95.2969 145.758 95.1797 145.883C95.0664 146.008 94.9004 146.07 94.6816 146.07C94.4629 146.07 94.2949 146.008 94.1777 145.883C94.0645 145.758 94.0078 145.605 94.0078 145.426ZM97.1719 145.426C97.1719 145.242 97.2285 145.088 97.3418 144.963C97.459 144.834 97.627 144.77 97.8457 144.77C98.0645 144.77 98.2305 144.834 98.3438 144.963C98.4609 145.088 98.5195 145.242 98.5195 145.426C98.5195 145.605 98.4609 145.758 98.3438 145.883C98.2305 146.008 98.0645 146.07 97.8457 146.07C97.627 146.07 97.459 146.008 97.3418 145.883C97.2285 145.758 97.1719 145.605 97.1719 145.426Z"
    fill="white" />
  <path
    d="M22.2031 137.469V146H21.0723V137.469H22.2031ZM25.1738 140.92V146H24.084V139.66H25.1152L25.1738 140.92ZM24.9512 142.59L24.4473 142.572C24.4512 142.139 24.5078 141.738 24.6172 141.371C24.7266 141 24.8887 140.678 25.1035 140.404C25.3184 140.131 25.5859 139.92 25.9062 139.771C26.2266 139.619 26.5977 139.543 27.0195 139.543C27.3164 139.543 27.5898 139.586 27.8398 139.672C28.0898 139.754 28.3066 139.885 28.4902 140.064C28.6738 140.244 28.8164 140.475 28.918 140.756C29.0195 141.037 29.0703 141.377 29.0703 141.775V146H27.9863V141.828C27.9863 141.496 27.9297 141.23 27.8164 141.031C27.707 140.832 27.5508 140.688 27.3477 140.598C27.1445 140.504 26.9062 140.457 26.6328 140.457C26.3125 140.457 26.0449 140.514 25.8301 140.627C25.6152 140.74 25.4434 140.896 25.3145 141.096C25.1855 141.295 25.0918 141.523 25.0332 141.781C24.9785 142.035 24.9512 142.305 24.9512 142.59ZM29.0586 141.992L28.332 142.215C28.3359 141.867 28.3926 141.533 28.502 141.213C28.6152 140.893 28.7773 140.607 28.9883 140.357C29.2031 140.107 29.4668 139.91 29.7793 139.766C30.0918 139.617 30.4492 139.543 30.8516 139.543C31.1914 139.543 31.4922 139.588 31.7539 139.678C32.0195 139.768 32.2422 139.906 32.4219 140.094C32.6055 140.277 32.7441 140.514 32.8379 140.803C32.9316 141.092 32.9785 141.436 32.9785 141.834V146H31.8887V141.822C31.8887 141.467 31.832 141.191 31.7188 140.996C31.6094 140.797 31.4531 140.658 31.25 140.58C31.0508 140.498 30.8125 140.457 30.5352 140.457C30.2969 140.457 30.0859 140.498 29.9023 140.58C29.7188 140.662 29.5645 140.775 29.4395 140.92C29.3145 141.061 29.2188 141.223 29.1523 141.406C29.0898 141.59 29.0586 141.785 29.0586 141.992ZM38.3574 144.916V141.652C38.3574 141.402 38.3066 141.186 38.2051 141.002C38.1074 140.814 37.959 140.67 37.7598 140.568C37.5605 140.467 37.3145 140.416 37.0215 140.416C36.748 140.416 36.5078 140.463 36.3008 140.557C36.0977 140.65 35.9375 140.773 35.8203 140.926C35.707 141.078 35.6504 141.242 35.6504 141.418H34.5664C34.5664 141.191 34.625 140.967 34.7422 140.744C34.8594 140.521 35.0273 140.32 35.2461 140.141C35.4688 139.957 35.7344 139.812 36.043 139.707C36.3555 139.598 36.7031 139.543 37.0859 139.543C37.5469 139.543 37.9531 139.621 38.3047 139.777C38.6602 139.934 38.9375 140.17 39.1367 140.486C39.3398 140.799 39.4414 141.191 39.4414 141.664V144.617C39.4414 144.828 39.459 145.053 39.4941 145.291C39.5332 145.529 39.5898 145.734 39.6641 145.906V146H38.5332C38.4785 145.875 38.4355 145.709 38.4043 145.502C38.373 145.291 38.3574 145.096 38.3574 144.916ZM38.5449 142.156L38.5566 142.918H37.4609C37.1523 142.918 36.877 142.943 36.6348 142.994C36.3926 143.041 36.1895 143.113 36.0254 143.211C35.8613 143.309 35.7363 143.432 35.6504 143.58C35.5645 143.725 35.5215 143.895 35.5215 144.09C35.5215 144.289 35.5664 144.471 35.6562 144.635C35.7461 144.799 35.8809 144.93 36.0605 145.027C36.2441 145.121 36.4688 145.168 36.7344 145.168C37.0664 145.168 37.3594 145.098 37.6133 144.957C37.8672 144.816 38.0684 144.645 38.2168 144.441C38.3691 144.238 38.4512 144.041 38.4629 143.85L38.9258 144.371C38.8984 144.535 38.8242 144.717 38.7031 144.916C38.582 145.115 38.4199 145.307 38.2168 145.49C38.0176 145.67 37.7793 145.82 37.502 145.941C37.2285 146.059 36.9199 146.117 36.5762 146.117C36.1465 146.117 35.7695 146.033 35.4453 145.865C35.125 145.697 34.875 145.473 34.6953 145.191C34.5195 144.906 34.4316 144.588 34.4316 144.236C34.4316 143.896 34.498 143.598 34.6309 143.34C34.7637 143.078 34.9551 142.861 35.2051 142.689C35.4551 142.514 35.7559 142.381 36.1074 142.291C36.459 142.201 36.8516 142.156 37.2852 142.156H38.5449ZM45.2539 139.66H46.2383V145.865C46.2383 146.424 46.125 146.9 45.8984 147.295C45.6719 147.689 45.3555 147.988 44.9492 148.191C44.5469 148.398 44.082 148.502 43.5547 148.502C43.3359 148.502 43.0781 148.467 42.7812 148.396C42.4883 148.33 42.1992 148.215 41.9141 148.051C41.6328 147.891 41.3965 147.674 41.2051 147.4L41.7734 146.756C42.0391 147.076 42.3164 147.299 42.6055 147.424C42.8984 147.549 43.1875 147.611 43.4727 147.611C43.8164 147.611 44.1133 147.547 44.3633 147.418C44.6133 147.289 44.8066 147.098 44.9434 146.844C45.084 146.594 45.1543 146.285 45.1543 145.918V141.055L45.2539 139.66ZM40.8887 142.9V142.777C40.8887 142.293 40.9453 141.854 41.0586 141.459C41.1758 141.061 41.3418 140.719 41.5566 140.434C41.7754 140.148 42.0391 139.93 42.3477 139.777C42.6562 139.621 43.0039 139.543 43.3906 139.543C43.7891 139.543 44.1367 139.613 44.4336 139.754C44.7344 139.891 44.9883 140.092 45.1953 140.357C45.4062 140.619 45.5723 140.936 45.6934 141.307C45.8145 141.678 45.8984 142.098 45.9453 142.566V143.105C45.9023 143.57 45.8184 143.988 45.6934 144.359C45.5723 144.73 45.4062 145.047 45.1953 145.309C44.9883 145.57 44.7344 145.771 44.4336 145.912C44.1328 146.049 43.7812 146.117 43.3789 146.117C43 146.117 42.6562 146.037 42.3477 145.877C42.043 145.717 41.7812 145.492 41.5625 145.203C41.3438 144.914 41.1758 144.574 41.0586 144.184C40.9453 143.789 40.8887 143.361 40.8887 142.9ZM41.9727 142.777V142.9C41.9727 143.217 42.0039 143.514 42.0664 143.791C42.1328 144.068 42.2324 144.312 42.3652 144.523C42.502 144.734 42.6758 144.9 42.8867 145.021C43.0977 145.139 43.3496 145.197 43.6426 145.197C44.002 145.197 44.2988 145.121 44.5332 144.969C44.7676 144.816 44.9531 144.615 45.0898 144.365C45.2305 144.115 45.3398 143.844 45.418 143.551V142.139C45.375 141.924 45.3086 141.717 45.2188 141.518C45.1328 141.314 45.0195 141.135 44.8789 140.979C44.7422 140.818 44.5723 140.691 44.3691 140.598C44.166 140.504 43.9277 140.457 43.6543 140.457C43.3574 140.457 43.1016 140.52 42.8867 140.645C42.6758 140.766 42.502 140.934 42.3652 141.148C42.2324 141.359 42.1328 141.605 42.0664 141.887C42.0039 142.164 41.9727 142.461 41.9727 142.777ZM50.5156 146.117C50.0742 146.117 49.6738 146.043 49.3145 145.895C48.959 145.742 48.6523 145.529 48.3945 145.256C48.1406 144.982 47.9453 144.658 47.8086 144.283C47.6719 143.908 47.6035 143.498 47.6035 143.053V142.807C47.6035 142.291 47.6797 141.832 47.832 141.43C47.9844 141.023 48.1914 140.68 48.4531 140.398C48.7148 140.117 49.0117 139.904 49.3438 139.76C49.6758 139.615 50.0195 139.543 50.375 139.543C50.8281 139.543 51.2188 139.621 51.5469 139.777C51.8789 139.934 52.1504 140.152 52.3613 140.434C52.5723 140.711 52.7285 141.039 52.8301 141.418C52.9316 141.793 52.9824 142.203 52.9824 142.648V143.135H48.248V142.25H51.8984V142.168C51.8828 141.887 51.8242 141.613 51.7227 141.348C51.625 141.082 51.4688 140.863 51.2539 140.691C51.0391 140.52 50.7461 140.434 50.375 140.434C50.1289 140.434 49.9023 140.486 49.6953 140.592C49.4883 140.693 49.3105 140.846 49.1621 141.049C49.0137 141.252 48.8984 141.5 48.8164 141.793C48.7344 142.086 48.6934 142.424 48.6934 142.807V143.053C48.6934 143.354 48.7344 143.637 48.8164 143.902C48.9023 144.164 49.0254 144.395 49.1855 144.594C49.3496 144.793 49.5469 144.949 49.7773 145.062C50.0117 145.176 50.2773 145.232 50.5742 145.232C50.957 145.232 51.2812 145.154 51.5469 144.998C51.8125 144.842 52.0449 144.633 52.2441 144.371L52.9004 144.893C52.7637 145.1 52.5898 145.297 52.3789 145.484C52.168 145.672 51.9082 145.824 51.5996 145.941C51.2949 146.059 50.9336 146.117 50.5156 146.117ZM57.9395 144.318C57.9395 144.162 57.9043 144.018 57.834 143.885C57.7676 143.748 57.6289 143.625 57.418 143.516C57.2109 143.402 56.8984 143.305 56.4805 143.223C56.1289 143.148 55.8105 143.061 55.5254 142.959C55.2441 142.857 55.0039 142.734 54.8047 142.59C54.6094 142.445 54.459 142.275 54.3535 142.08C54.248 141.885 54.1953 141.656 54.1953 141.395C54.1953 141.145 54.25 140.908 54.3594 140.686C54.4727 140.463 54.6309 140.266 54.834 140.094C55.041 139.922 55.2891 139.787 55.5781 139.689C55.8672 139.592 56.1895 139.543 56.5449 139.543C57.0527 139.543 57.4863 139.633 57.8457 139.812C58.2051 139.992 58.4805 140.232 58.6719 140.533C58.8633 140.83 58.959 141.16 58.959 141.523H57.875C57.875 141.348 57.8223 141.178 57.7168 141.014C57.6152 140.846 57.4648 140.707 57.2656 140.598C57.0703 140.488 56.8301 140.434 56.5449 140.434C56.2441 140.434 56 140.48 55.8125 140.574C55.6289 140.664 55.4941 140.779 55.4082 140.92C55.3262 141.061 55.2852 141.209 55.2852 141.365C55.2852 141.482 55.3047 141.588 55.3438 141.682C55.3867 141.771 55.4609 141.855 55.5664 141.934C55.6719 142.008 55.8203 142.078 56.0117 142.145C56.2031 142.211 56.4473 142.277 56.7441 142.344C57.2637 142.461 57.6914 142.602 58.0273 142.766C58.3633 142.93 58.6133 143.131 58.7773 143.369C58.9414 143.607 59.0234 143.896 59.0234 144.236C59.0234 144.514 58.9648 144.768 58.8477 144.998C58.7344 145.229 58.5684 145.428 58.3496 145.596C58.1348 145.76 57.877 145.889 57.5762 145.982C57.2793 146.072 56.9453 146.117 56.5742 146.117C56.0156 146.117 55.543 146.018 55.1562 145.818C54.7695 145.619 54.4766 145.361 54.2773 145.045C54.0781 144.729 53.9785 144.395 53.9785 144.043H55.0684C55.084 144.34 55.1699 144.576 55.3262 144.752C55.4824 144.924 55.6738 145.047 55.9004 145.121C56.127 145.191 56.3516 145.227 56.5742 145.227C56.8711 145.227 57.1191 145.188 57.3184 145.109C57.5215 145.031 57.6758 144.924 57.7812 144.787C57.8867 144.65 57.9395 144.494 57.9395 144.318ZM60.4004 145.426C60.4004 145.242 60.457 145.088 60.5703 144.963C60.6875 144.834 60.8555 144.77 61.0742 144.77C61.293 144.77 61.459 144.834 61.5723 144.963C61.6895 145.088 61.748 145.242 61.748 145.426C61.748 145.605 61.6895 145.758 61.5723 145.883C61.459 146.008 61.293 146.07 61.0742 146.07C60.8555 146.07 60.6875 146.008 60.5703 145.883C60.457 145.758 60.4004 145.605 60.4004 145.426ZM60.4062 140.252C60.4062 140.068 60.4629 139.914 60.5762 139.789C60.6934 139.66 60.8613 139.596 61.0801 139.596C61.2988 139.596 61.4648 139.66 61.5781 139.789C61.6953 139.914 61.7539 140.068 61.7539 140.252C61.7539 140.432 61.6953 140.584 61.5781 140.709C61.4648 140.834 61.2988 140.896 61.0801 140.896C60.8613 140.896 60.6934 140.834 60.5762 140.709C60.4629 140.584 60.4062 140.432 60.4062 140.252Z"
    fill="#A4BAB7" />
  <path
    d="M102.338 104.469V113H100.867V104.469H102.338ZM105.818 108.201V109.367H101.963V108.201H105.818ZM106.305 104.469V105.641H101.963V104.469H106.305ZM108.848 106.66V113H107.43V106.66H108.848ZM107.336 104.996C107.336 104.781 107.406 104.604 107.547 104.463C107.691 104.318 107.891 104.246 108.145 104.246C108.395 104.246 108.592 104.318 108.736 104.463C108.881 104.604 108.953 104.781 108.953 104.996C108.953 105.207 108.881 105.383 108.736 105.523C108.592 105.664 108.395 105.734 108.145 105.734C107.891 105.734 107.691 105.664 107.547 105.523C107.406 105.383 107.336 105.207 107.336 104.996ZM111.906 104V113H110.488V104H111.906ZM116.248 113.117C115.779 113.117 115.355 113.041 114.977 112.889C114.602 112.732 114.281 112.516 114.016 112.238C113.754 111.961 113.553 111.635 113.412 111.26C113.271 110.885 113.201 110.48 113.201 110.047V109.812C113.201 109.316 113.273 108.867 113.418 108.465C113.562 108.062 113.764 107.719 114.021 107.434C114.279 107.145 114.584 106.924 114.936 106.771C115.287 106.619 115.668 106.543 116.078 106.543C116.531 106.543 116.928 106.619 117.268 106.771C117.607 106.924 117.889 107.139 118.111 107.416C118.338 107.689 118.506 108.016 118.615 108.395C118.729 108.773 118.785 109.191 118.785 109.648V110.252H113.887V109.238H117.391V109.127C117.383 108.873 117.332 108.635 117.238 108.412C117.148 108.189 117.01 108.01 116.822 107.873C116.635 107.736 116.385 107.668 116.072 107.668C115.838 107.668 115.629 107.719 115.445 107.82C115.266 107.918 115.115 108.061 114.994 108.248C114.873 108.436 114.779 108.662 114.713 108.928C114.65 109.189 114.619 109.484 114.619 109.812V110.047C114.619 110.324 114.656 110.582 114.73 110.82C114.809 111.055 114.922 111.26 115.07 111.436C115.219 111.611 115.398 111.75 115.609 111.852C115.82 111.949 116.061 111.998 116.33 111.998C116.67 111.998 116.973 111.93 117.238 111.793C117.504 111.656 117.734 111.463 117.93 111.213L118.674 111.934C118.537 112.133 118.359 112.324 118.141 112.508C117.922 112.688 117.654 112.834 117.338 112.947C117.025 113.061 116.662 113.117 116.248 113.117Z"
    fill="#A4BAB7" />
  <circle cx="90" cy="109" r="5" fill="black" />
  <path
    d="M37.3379 104.469V113H35.8672V104.469H37.3379ZM40.8184 108.201V109.367H36.9629V108.201H40.8184ZM41.3047 104.469V105.641H36.9629V104.469H41.3047ZM41.9375 109.9V109.766C41.9375 109.309 42.0039 108.885 42.1367 108.494C42.2695 108.1 42.4609 107.758 42.7109 107.469C42.9648 107.176 43.2734 106.949 43.6367 106.789C44.0039 106.625 44.418 106.543 44.8789 106.543C45.3438 106.543 45.7578 106.625 46.1211 106.789C46.4883 106.949 46.7988 107.176 47.0527 107.469C47.3066 107.758 47.5 108.1 47.6328 108.494C47.7656 108.885 47.832 109.309 47.832 109.766V109.9C47.832 110.357 47.7656 110.781 47.6328 111.172C47.5 111.562 47.3066 111.904 47.0527 112.197C46.7988 112.486 46.4902 112.713 46.127 112.877C45.7637 113.037 45.3516 113.117 44.8906 113.117C44.4258 113.117 44.0098 113.037 43.6426 112.877C43.2793 112.713 42.9707 112.486 42.7168 112.197C42.4629 111.904 42.2695 111.562 42.1367 111.172C42.0039 110.781 41.9375 110.357 41.9375 109.9ZM43.3496 109.766V109.9C43.3496 110.186 43.3789 110.455 43.4375 110.709C43.4961 110.963 43.5879 111.186 43.7129 111.377C43.8379 111.568 43.998 111.719 44.1934 111.828C44.3887 111.938 44.6211 111.992 44.8906 111.992C45.1523 111.992 45.3789 111.938 45.5703 111.828C45.7656 111.719 45.9258 111.568 46.0508 111.377C46.1758 111.186 46.2676 110.963 46.3262 110.709C46.3887 110.455 46.4199 110.186 46.4199 109.9V109.766C46.4199 109.484 46.3887 109.219 46.3262 108.969C46.2676 108.715 46.1738 108.49 46.0449 108.295C45.9199 108.1 45.7598 107.947 45.5645 107.838C45.373 107.725 45.1445 107.668 44.8789 107.668C44.6133 107.668 44.3828 107.725 44.1875 107.838C43.9961 107.947 43.8379 108.1 43.7129 108.295C43.5879 108.49 43.4961 108.715 43.4375 108.969C43.3789 109.219 43.3496 109.484 43.3496 109.766ZM50.5273 104V113H49.1094V104H50.5273ZM55.9414 111.688V104H57.3594V113H56.0762L55.9414 111.688ZM51.8164 109.9V109.777C51.8164 109.297 51.873 108.859 51.9863 108.465C52.0996 108.066 52.2637 107.725 52.4785 107.439C52.6934 107.15 52.9551 106.93 53.2637 106.777C53.5723 106.621 53.9199 106.543 54.3066 106.543C54.6895 106.543 55.0254 106.617 55.3145 106.766C55.6035 106.914 55.8496 107.127 56.0527 107.404C56.2559 107.678 56.418 108.006 56.5391 108.389C56.6602 108.768 56.7461 109.189 56.7969 109.654V110.047C56.7461 110.5 56.6602 110.914 56.5391 111.289C56.418 111.664 56.2559 111.988 56.0527 112.262C55.8496 112.535 55.6016 112.746 55.3086 112.895C55.0195 113.043 54.6816 113.117 54.2949 113.117C53.9121 113.117 53.5664 113.037 53.2578 112.877C52.9531 112.717 52.6934 112.492 52.4785 112.203C52.2637 111.914 52.0996 111.574 51.9863 111.184C51.873 110.789 51.8164 110.361 51.8164 109.9ZM53.2285 109.777V109.9C53.2285 110.189 53.2539 110.459 53.3047 110.709C53.3594 110.959 53.4434 111.18 53.5566 111.371C53.6699 111.559 53.8164 111.707 53.9961 111.816C54.1797 111.922 54.3984 111.975 54.6523 111.975C54.9727 111.975 55.2363 111.904 55.4434 111.764C55.6504 111.623 55.8125 111.434 55.9297 111.195C56.0508 110.953 56.1328 110.684 56.1758 110.387V109.326C56.1523 109.096 56.1035 108.881 56.0293 108.682C55.959 108.482 55.8633 108.309 55.7422 108.16C55.6211 108.008 55.4707 107.891 55.291 107.809C55.1152 107.723 54.9062 107.68 54.6641 107.68C54.4062 107.68 54.1875 107.734 54.0078 107.844C53.8281 107.953 53.6797 108.104 53.5625 108.295C53.4492 108.486 53.3652 108.709 53.3105 108.963C53.2559 109.217 53.2285 109.488 53.2285 109.777ZM61.6309 113.117C61.1621 113.117 60.7383 113.041 60.3594 112.889C59.9844 112.732 59.6641 112.516 59.3984 112.238C59.1367 111.961 58.9355 111.635 58.7949 111.26C58.6543 110.885 58.584 110.48 58.584 110.047V109.812C58.584 109.316 58.6562 108.867 58.8008 108.465C58.9453 108.062 59.1465 107.719 59.4043 107.434C59.6621 107.145 59.9668 106.924 60.3184 106.771C60.6699 106.619 61.0508 106.543 61.4609 106.543C61.9141 106.543 62.3105 106.619 62.6504 106.771C62.9902 106.924 63.2715 107.139 63.4941 107.416C63.7207 107.689 63.8887 108.016 63.998 108.395C64.1113 108.773 64.168 109.191 64.168 109.648V110.252H59.2695V109.238H62.7734V109.127C62.7656 108.873 62.7148 108.635 62.6211 108.412C62.5312 108.189 62.3926 108.01 62.2051 107.873C62.0176 107.736 61.7676 107.668 61.4551 107.668C61.2207 107.668 61.0117 107.719 60.8281 107.82C60.6484 107.918 60.498 108.061 60.377 108.248C60.2559 108.436 60.1621 108.662 60.0957 108.928C60.0332 109.189 60.002 109.484 60.002 109.812V110.047C60.002 110.324 60.0391 110.582 60.1133 110.82C60.1914 111.055 60.3047 111.26 60.4531 111.436C60.6016 111.611 60.7812 111.75 60.9922 111.852C61.2031 111.949 61.4434 111.998 61.7129 111.998C62.0527 111.998 62.3555 111.93 62.6211 111.793C62.8867 111.656 63.1172 111.463 63.3125 111.213L64.0566 111.934C63.9199 112.133 63.7422 112.324 63.5234 112.508C63.3047 112.688 63.0371 112.834 62.7207 112.947C62.4082 113.061 62.0449 113.117 61.6309 113.117ZM66.6875 107.867V113H65.2754V106.66H66.623L66.6875 107.867ZM68.627 106.619L68.6152 107.932C68.5293 107.916 68.4355 107.904 68.334 107.896C68.2363 107.889 68.1387 107.885 68.041 107.885C67.7988 107.885 67.5859 107.92 67.4023 107.99C67.2188 108.057 67.0645 108.154 66.9395 108.283C66.8184 108.408 66.7246 108.561 66.6582 108.74C66.5918 108.92 66.5527 109.121 66.541 109.344L66.2188 109.367C66.2188 108.969 66.2578 108.6 66.3359 108.26C66.4141 107.92 66.5312 107.621 66.6875 107.363C66.8477 107.105 67.0469 106.904 67.2852 106.76C67.5273 106.615 67.8066 106.543 68.123 106.543C68.209 106.543 68.3008 106.551 68.3984 106.566C68.5 106.582 68.5762 106.6 68.627 106.619Z"
    fill="#A4BAB7" />
  <circle cx="25" cy="109" r="5" fill="black" />
  <line x1="20" y1="119.5" x2="480" y2="119.5" stroke="#A4BAB7" stroke-opacity="0.1" />
  <path
    d="M212.105 60.9375V78H209.164V60.9375H212.105ZM218.305 67.8984V78H215.48V65.3203H218.141L218.305 67.8984ZM217.848 71.1914L216.887 71.1797C216.887 70.3047 216.996 69.4961 217.215 68.7539C217.434 68.0117 217.754 67.3672 218.176 66.8203C218.598 66.2656 219.121 65.8398 219.746 65.543C220.379 65.2383 221.109 65.0859 221.938 65.0859C222.516 65.0859 223.043 65.1719 223.52 65.3438C224.004 65.5078 224.422 65.7695 224.773 66.1289C225.133 66.4883 225.406 66.9492 225.594 67.5117C225.789 68.0742 225.887 68.7539 225.887 69.5508V78H223.062V69.7969C223.062 69.1797 222.969 68.6953 222.781 68.3438C222.602 67.9922 222.34 67.7422 221.996 67.5938C221.66 67.4375 221.258 67.3594 220.789 67.3594C220.258 67.3594 219.805 67.4609 219.43 67.6641C219.062 67.8672 218.762 68.1445 218.527 68.4961C218.293 68.8477 218.121 69.2539 218.012 69.7148C217.902 70.1758 217.848 70.668 217.848 71.1914ZM225.711 70.4414L224.387 70.7344C224.387 69.9688 224.492 69.2461 224.703 68.5664C224.922 67.8789 225.238 67.2773 225.652 66.7617C226.074 66.2383 226.594 65.8281 227.211 65.5312C227.828 65.2344 228.535 65.0859 229.332 65.0859C229.98 65.0859 230.559 65.1758 231.066 65.3555C231.582 65.5273 232.02 65.8008 232.379 66.1758C232.738 66.5508 233.012 67.0391 233.199 67.6406C233.387 68.2344 233.48 68.9531 233.48 69.7969V78H230.645V69.7852C230.645 69.1445 230.551 68.6484 230.363 68.2969C230.184 67.9453 229.926 67.7031 229.59 67.5703C229.254 67.4297 228.852 67.3594 228.383 67.3594C227.945 67.3594 227.559 67.4414 227.223 67.6055C226.895 67.7617 226.617 67.9844 226.391 68.2734C226.164 68.5547 225.992 68.8789 225.875 69.2461C225.766 69.6133 225.711 70.0117 225.711 70.4414ZM244.508 65.3203H247.074V77.6484C247.074 78.7891 246.832 79.7578 246.348 80.5547C245.863 81.3516 245.188 81.957 244.32 82.3711C243.453 82.793 242.449 83.0039 241.309 83.0039C240.824 83.0039 240.285 82.9336 239.691 82.793C239.105 82.6523 238.535 82.4258 237.98 82.1133C237.434 81.8086 236.977 81.4062 236.609 80.9062L237.934 79.2422C238.387 79.7812 238.887 80.1758 239.434 80.4258C239.98 80.6758 240.555 80.8008 241.156 80.8008C241.805 80.8008 242.355 80.6797 242.809 80.4375C243.27 80.2031 243.625 79.8555 243.875 79.3945C244.125 78.9336 244.25 78.3711 244.25 77.707V68.1914L244.508 65.3203ZM235.895 71.8008V71.5547C235.895 70.5938 236.012 69.7188 236.246 68.9297C236.48 68.1328 236.816 67.4492 237.254 66.8789C237.691 66.3008 238.223 65.8594 238.848 65.5547C239.473 65.2422 240.18 65.0859 240.969 65.0859C241.789 65.0859 242.488 65.2344 243.066 65.5312C243.652 65.8281 244.141 66.2539 244.531 66.8086C244.922 67.3555 245.227 68.0117 245.445 68.7773C245.672 69.5352 245.84 70.3789 245.949 71.3086V72.0938C245.848 73 245.676 73.8281 245.434 74.5781C245.191 75.3281 244.871 75.9766 244.473 76.5234C244.074 77.0703 243.582 77.4922 242.996 77.7891C242.418 78.0859 241.734 78.2344 240.945 78.2344C240.172 78.2344 239.473 78.0742 238.848 77.7539C238.23 77.4336 237.699 76.9844 237.254 76.4062C236.816 75.8281 236.48 75.1484 236.246 74.3672C236.012 73.5781 235.895 72.7227 235.895 71.8008ZM238.719 71.5547V71.8008C238.719 72.3789 238.773 72.918 238.883 73.418C239 73.918 239.176 74.3594 239.41 74.7422C239.652 75.1172 239.957 75.4141 240.324 75.6328C240.699 75.8438 241.141 75.9492 241.648 75.9492C242.312 75.9492 242.855 75.8086 243.277 75.5273C243.707 75.2461 244.035 74.8672 244.262 74.3906C244.496 73.9062 244.66 73.3672 244.754 72.7734V70.6523C244.707 70.1914 244.609 69.7617 244.461 69.3633C244.32 68.9648 244.129 68.6172 243.887 68.3203C243.645 68.0156 243.34 67.7812 242.973 67.6172C242.605 67.4453 242.172 67.3594 241.672 67.3594C241.164 67.3594 240.723 67.4688 240.348 67.6875C239.973 67.9062 239.664 68.207 239.422 68.5898C239.188 68.9727 239.012 69.418 238.895 69.9258C238.777 70.4336 238.719 70.9766 238.719 71.5547ZM268.279 78.84C267.911 78.84 267.559 78.728 267.223 78.504C266.887 78.296 266.607 78.024 266.383 77.688C266.175 77.352 266.071 77.016 266.071 76.68C266.071 76.296 266.231 75.888 266.551 75.456C266.871 75.024 267.247 74.6 267.679 74.184C268.127 73.752 268.519 73.384 268.855 73.08H258.943C258.031 73.08 257.383 73.008 256.999 72.864C256.615 72.72 256.311 72.48 256.087 72.144C255.863 71.824 255.751 71.376 255.751 70.8C255.751 70.224 255.855 69.776 256.063 69.456C256.287 69.136 256.591 68.896 256.975 68.736C257.359 68.592 258.015 68.52 258.943 68.52H268.855L267.679 67.392C267.023 66.752 266.591 66.264 266.383 65.928C266.175 65.576 266.071 65.24 266.071 64.92C266.071 64.584 266.175 64.248 266.383 63.912C266.591 63.576 266.863 63.304 267.199 63.096C267.551 62.872 267.911 62.76 268.279 62.76C268.599 62.76 268.943 62.864 269.311 63.072C269.679 63.264 270.111 63.6 270.607 64.08L277.519 70.8L270.751 77.376C270.175 77.92 269.703 78.296 269.335 78.504C268.967 78.728 268.615 78.84 268.279 78.84ZM291.98 65.3203V67.3828H284.832V65.3203H291.98ZM286.895 62.2148H289.719V74.4961C289.719 74.8867 289.773 75.1875 289.883 75.3984C290 75.6016 290.16 75.7383 290.363 75.8086C290.566 75.8789 290.805 75.9141 291.078 75.9141C291.273 75.9141 291.461 75.9023 291.641 75.8789C291.82 75.8555 291.965 75.832 292.074 75.8086L292.086 77.9648C291.852 78.0352 291.578 78.0977 291.266 78.1523C290.961 78.207 290.609 78.2344 290.211 78.2344C289.562 78.2344 288.988 78.1211 288.488 77.8945C287.988 77.6602 287.598 77.2812 287.316 76.7578C287.035 76.2344 286.895 75.5391 286.895 74.6719V62.2148ZM296.316 65.3203L298.73 69.5273L301.191 65.3203H304.297L300.453 71.543L304.449 78H301.344L298.766 73.6172L296.188 78H293.07L297.055 71.543L293.223 65.3203H296.316ZM312.043 65.3203V67.3828H304.895V65.3203H312.043ZM306.957 62.2148H309.781V74.4961C309.781 74.8867 309.836 75.1875 309.945 75.3984C310.062 75.6016 310.223 75.7383 310.426 75.8086C310.629 75.8789 310.867 75.9141 311.141 75.9141C311.336 75.9141 311.523 75.9023 311.703 75.8789C311.883 75.8555 312.027 75.832 312.137 75.8086L312.148 77.9648C311.914 78.0352 311.641 78.0977 311.328 78.1523C311.023 78.207 310.672 78.2344 310.273 78.2344C309.625 78.2344 309.051 78.1211 308.551 77.8945C308.051 77.6602 307.66 77.2812 307.379 76.7578C307.098 76.2344 306.957 75.5391 306.957 74.6719V62.2148Z"
    fill="#A4BAB7" />
  <g clip-path="url(#clip0_14_2)">
    <rect width="500" height="30" fill="#080F0F" />
    <path
      d="M22.2031 10.4688V19H21.0723V10.4688H22.2031ZM25.1738 13.9199V19H24.084V12.6602H25.1152L25.1738 13.9199ZM24.9512 15.5898L24.4473 15.5723C24.4512 15.1387 24.5078 14.7383 24.6172 14.3711C24.7266 14 24.8887 13.6777 25.1035 13.4043C25.3184 13.1309 25.5859 12.9199 25.9062 12.7715C26.2266 12.6191 26.5977 12.543 27.0195 12.543C27.3164 12.543 27.5898 12.5859 27.8398 12.6719C28.0898 12.7539 28.3066 12.8848 28.4902 13.0645C28.6738 13.2441 28.8164 13.4746 28.918 13.7559C29.0195 14.0371 29.0703 14.377 29.0703 14.7754V19H27.9863V14.8281C27.9863 14.4961 27.9297 14.2305 27.8164 14.0312C27.707 13.832 27.5508 13.6875 27.3477 13.5977C27.1445 13.5039 26.9062 13.457 26.6328 13.457C26.3125 13.457 26.0449 13.5137 25.8301 13.627C25.6152 13.7402 25.4434 13.8965 25.3145 14.0957C25.1855 14.2949 25.0918 14.5234 25.0332 14.7812C24.9785 15.0352 24.9512 15.3047 24.9512 15.5898ZM29.0586 14.9922L28.332 15.2148C28.3359 14.8672 28.3926 14.5332 28.502 14.2129C28.6152 13.8926 28.7773 13.6074 28.9883 13.3574C29.2031 13.1074 29.4668 12.9102 29.7793 12.7656C30.0918 12.6172 30.4492 12.543 30.8516 12.543C31.1914 12.543 31.4922 12.5879 31.7539 12.6777C32.0195 12.7676 32.2422 12.9062 32.4219 13.0938C32.6055 13.2773 32.7441 13.5137 32.8379 13.8027C32.9316 14.0918 32.9785 14.4355 32.9785 14.834V19H31.8887V14.8223C31.8887 14.4668 31.832 14.1914 31.7188 13.9961C31.6094 13.7969 31.4531 13.6582 31.25 13.5801C31.0508 13.498 30.8125 13.457 30.5352 13.457C30.2969 13.457 30.0859 13.498 29.9023 13.5801C29.7188 13.6621 29.5645 13.7754 29.4395 13.9199C29.3145 14.0605 29.2188 14.2227 29.1523 14.4062C29.0898 14.5898 29.0586 14.7852 29.0586 14.9922ZM38.7266 12.6602H39.7109V18.8652C39.7109 19.4238 39.5977 19.9004 39.3711 20.2949C39.1445 20.6895 38.8281 20.9883 38.4219 21.1914C38.0195 21.3984 37.5547 21.502 37.0273 21.502C36.8086 21.502 36.5508 21.4668 36.2539 21.3965C35.9609 21.3301 35.6719 21.2148 35.3867 21.0508C35.1055 20.8906 34.8691 20.6738 34.6777 20.4004L35.2461 19.7559C35.5117 20.0762 35.7891 20.2988 36.0781 20.4238C36.3711 20.5488 36.6602 20.6113 36.9453 20.6113C37.2891 20.6113 37.5859 20.5469 37.8359 20.418C38.0859 20.2891 38.2793 20.0977 38.416 19.8438C38.5566 19.5938 38.627 19.2852 38.627 18.918V14.0547L38.7266 12.6602ZM34.3613 15.9004V15.7773C34.3613 15.293 34.418 14.8535 34.5312 14.459C34.6484 14.0605 34.8145 13.7188 35.0293 13.4336C35.248 13.1484 35.5117 12.9297 35.8203 12.7773C36.1289 12.6211 36.4766 12.543 36.8633 12.543C37.2617 12.543 37.6094 12.6133 37.9062 12.7539C38.207 12.8906 38.4609 13.0918 38.668 13.3574C38.8789 13.6191 39.0449 13.9355 39.166 14.3066C39.2871 14.6777 39.3711 15.0977 39.418 15.5664V16.1055C39.375 16.5703 39.291 16.9883 39.166 17.3594C39.0449 17.7305 38.8789 18.0469 38.668 18.3086C38.4609 18.5703 38.207 18.7715 37.9062 18.9121C37.6055 19.0488 37.2539 19.1172 36.8516 19.1172C36.4727 19.1172 36.1289 19.0371 35.8203 18.877C35.5156 18.7168 35.2539 18.4922 35.0352 18.2031C34.8164 17.9141 34.6484 17.5742 34.5312 17.1836C34.418 16.7891 34.3613 16.3613 34.3613 15.9004ZM35.4453 15.7773V15.9004C35.4453 16.2168 35.4766 16.5137 35.5391 16.791C35.6055 17.0684 35.7051 17.3125 35.8379 17.5234C35.9746 17.7344 36.1484 17.9004 36.3594 18.0215C36.5703 18.1387 36.8223 18.1973 37.1152 18.1973C37.4746 18.1973 37.7715 18.1211 38.0059 17.9688C38.2402 17.8164 38.4258 17.6152 38.5625 17.3652C38.7031 17.1152 38.8125 16.8438 38.8906 16.5508V15.1387C38.8477 14.9238 38.7812 14.7168 38.6914 14.5176C38.6055 14.3145 38.4922 14.1348 38.3516 13.9785C38.2148 13.8184 38.0449 13.6914 37.8418 13.5977C37.6387 13.5039 37.4004 13.457 37.127 13.457C36.8301 13.457 36.5742 13.5195 36.3594 13.6445C36.1484 13.7656 35.9746 13.9336 35.8379 14.1484C35.7051 14.3594 35.6055 14.6055 35.5391 14.8867C35.4766 15.1641 35.4453 15.4609 35.4453 15.7773ZM50.3838 19.42C50.1998 19.42 50.0238 19.364 49.8558 19.252C49.6878 19.148 49.5478 19.012 49.4358 18.844C49.3318 18.676 49.2798 18.508 49.2798 18.34C49.2798 18.148 49.3598 17.944 49.5198 17.728C49.6798 17.512 49.8678 17.3 50.0838 17.092C50.3078 16.876 50.5038 16.692 50.6718 16.54H45.7158C45.2598 16.54 44.9358 16.504 44.7438 16.432C44.5518 16.36 44.3998 16.24 44.2878 16.072C44.1758 15.912 44.1198 15.688 44.1198 15.4C44.1198 15.112 44.1718 14.888 44.2758 14.728C44.3878 14.568 44.5398 14.448 44.7318 14.368C44.9238 14.296 45.2518 14.26 45.7158 14.26H50.6718L50.0838 13.696C49.7558 13.376 49.5398 13.132 49.4358 12.964C49.3318 12.788 49.2798 12.62 49.2798 12.46C49.2798 12.292 49.3318 12.124 49.4358 11.956C49.5398 11.788 49.6758 11.652 49.8438 11.548C50.0198 11.436 50.1998 11.38 50.3838 11.38C50.5438 11.38 50.7158 11.432 50.8998 11.536C51.0838 11.632 51.2998 11.8 51.5478 12.04L55.0038 15.4L51.6198 18.688C51.3318 18.96 51.0958 19.148 50.9118 19.252C50.7278 19.364 50.5518 19.42 50.3838 19.42ZM62.0703 12.6602V13.4922H58.6426V12.6602H62.0703ZM59.8027 11.1191H60.8867V17.4297C60.8867 17.6445 60.9199 17.8066 60.9863 17.916C61.0527 18.0254 61.1387 18.0977 61.2441 18.1328C61.3496 18.168 61.4629 18.1855 61.584 18.1855C61.6738 18.1855 61.7676 18.1777 61.8652 18.1621C61.9668 18.1426 62.043 18.127 62.0938 18.1152L62.0996 19C62.0137 19.0273 61.9004 19.0527 61.7598 19.0762C61.623 19.1035 61.457 19.1172 61.2617 19.1172C60.9961 19.1172 60.752 19.0645 60.5293 18.959C60.3066 18.8535 60.1289 18.6777 59.9961 18.4316C59.8672 18.1816 59.8027 17.8457 59.8027 17.4238V11.1191ZM64.0742 12.6602L65.4629 14.9688L66.8691 12.6602H68.1406L66.0664 15.7891L68.2051 19H66.9512L65.4863 16.6211L64.0215 19H62.7617L64.8945 15.7891L62.8262 12.6602H64.0742ZM71.9492 12.6602V13.4922H68.5215V12.6602H71.9492ZM69.6816 11.1191H70.7656V17.4297C70.7656 17.6445 70.7988 17.8066 70.8652 17.916C70.9316 18.0254 71.0176 18.0977 71.123 18.1328C71.2285 18.168 71.3418 18.1855 71.4629 18.1855C71.5527 18.1855 71.6465 18.1777 71.7441 18.1621C71.8457 18.1426 71.9219 18.127 71.9727 18.1152L71.9785 19C71.8926 19.0273 71.7793 19.0527 71.6387 19.0762C71.502 19.1035 71.3359 19.1172 71.1406 19.1172C70.875 19.1172 70.6309 19.0645 70.4082 18.959C70.1855 18.8535 70.0078 18.6777 69.875 18.4316C69.7461 18.1816 69.6816 17.8457 69.6816 17.4238V11.1191Z"
      fill="#A4BAB7" />
    <path
      d="M463.682 21.3181C463.305 20.941 463.382 20.2547 463.852 19.7841L475.784 7.85227C476.255 7.38086 476.941 7.30468 477.318 7.68181C477.695 8.05894 477.619 8.74449 477.148 9.2159L465.216 21.1477C464.745 21.6183 464.059 21.6953 463.682 21.3181Z"
      fill="#A4BAB7" />
    <path
      d="M463.682 7.68185C464.059 7.30472 464.745 7.38169 465.216 7.8523L477.148 19.7841C477.619 20.2555 477.695 20.941 477.318 21.3182C476.941 21.6953 476.255 21.6191 475.784 21.1477L463.852 9.21593C463.382 8.74532 463.305 8.05898 463.682 7.68185Z"
      fill="#A4BAB7" />
    <path
      d="M423 14.75C423 14.3352 423.42 14 423.938 14H437.062C437.581 14 438 14.3352 438 14.75C438 15.1648 437.581 15.5 437.062 15.5H423.938C423.42 15.5 423 15.1648 423 14.75Z"
      fill="#A4BAB7" />
    <line y1="29.5" x2="500" y2="29.5" stroke="#A4BAB7" stroke-opacity="0.1" />
  </g>
  <defs>
    <clipPath id="clip0_14_2">
      <rect width="500" height="30" fill="white" />
    </clipPath>
  </defs>
</svg>