<svg width="15" height="15" viewBox="0 0 15 15" fill="none" xmlns="http://www.w3.org/2000/svg">
  <path
    d="M0.681816 14.3181C0.304687 13.941 0.381657 13.2547 0.85227 12.7841L12.7841 0.852268C13.2555 0.380856 13.941 0.304684 14.3181 0.681814C14.6953 1.05894 14.6191 1.74449 14.1477 2.2159L2.2159 14.1477C1.74529 14.6183 1.05895 14.6953 0.681816 14.3181Z"
    fill="#A4BAB7" />
  <path
    d="M0.681831 0.681847C1.05896 0.304717 1.7453 0.381688 2.21592 0.852301L14.1477 12.7841C14.6191 13.2555 14.6953 13.941 14.3182 14.3182C13.941 14.6953 13.2555 14.6191 12.7841 14.1477L0.852285 2.21593C0.381672 1.74532 0.304702 1.05898 0.681831 0.681847Z"
    fill="#A4BAB7" />
</svg>