<svg width="30" height="27" viewBox="0 0 30 27" fill="none" xmlns="http://www.w3.org/2000/svg">
  <path
    d="M10.0024 16.2539C10.0024 15.5662 10.565 15.0036 11.2527 15.0036H20.0048V8.33532H13.3365C12.416 8.33532 11.6695 7.58879 11.6695 6.66826V0H2.5006C1.11954 0 0 1.11954 0 2.5006V24.1724C0 25.553 1.11954 26.673 2.5006 26.673H17.5042C18.8852 26.673 20.0048 25.5535 20.0048 24.1724V17.5042H11.2527C10.565 17.5042 10.0024 16.9468 10.0024 16.2539ZM13.3365 0V6.66826H20.0048L13.3365 0ZM29.5956 15.3683L25.4279 11.2006C24.9395 10.7122 24.1485 10.7122 23.6598 11.2006C23.1712 11.689 23.1714 12.4801 23.6598 12.9687L25.7405 15.0036H20.0048V17.5042H25.7405L23.7072 19.5375C23.4587 19.7808 23.3389 20.0985 23.3389 20.4215C23.3389 20.7445 23.461 21.0613 23.7052 21.3056C24.1936 21.794 24.9847 21.794 25.4733 21.3056L29.641 17.1379C30.127 16.6498 30.127 15.858 29.5956 15.3683Z"
    fill="#A4BAB7" />
</svg>